# xmcd
#
# Track frame offsets:
#  150
#  13190
#  24900
#  36977
#  51380
#  64622
#  82180
#  97240
#  109292
#  121565
#  133100
#  150977
#  171040
#  187965
#  199802
#  212097
#  226355
#
# Disc length: 3204 seconds
#
# Revision: 0
# Processed by: cddbd v1.4PL0 Copyright (c) Steve Scherf et al.
# Submitted via: AltoMP3_Maker 3.0
#
DISCID=e70c8211
DTITLE=GERRY KO - 17 FOIS MERCI
DYEAR=1900
DGENRE=
TTITLE0=j'AI LE COEUR A CHANTER
TTITLE1=Quand le soleil dit bonjour aux montagnes
TTITLE2=Reviens dans mes bras
TTITLE3=L'heritage de mon pere
TTITLE4=Quand on s'aime bien tous les deux
TTITLE5=Un jour a la fois
TTITLE6=Mille apres mille
TTITLE7=Dis-lui que tu l'aimes
TTITLE8=L'adieu du soldat
TTITLE9=Le train de mon enfance
TTITLE10=Maries de mai
TTITLE11=Ton nom
TTITLE12=Si un enfant savait
TTITLE13=Petit soleil
TTITLE14=Etoile des neiges
TTITLE15=Je frappe a la porte de ton coeur
TTITLE16=On ne veut pas vieillir
EXTD=
EXTT0=
EXTT1=
EXTT2=
EXTT3=
EXTT4=
EXTT5=
EXTT6=
EXTT7=
EXTT8=
EXTT9=
EXTT10=
EXTT11=
EXTT12=
EXTT13=
EXTT14=
EXTT15=
EXTT16=
PLAYORDER=
